{"title":"Puss.In.Boots.2011.BRRip.XviD.AC3-INFERNO","uid":7025933,"size":693791478,"categoryP":"video","categoryS":"movies","magnet":"?xt=urn:btih:3d9c92d992f1b8de9204b25c37ee459af6f5e627&amp;dn=Puss.In.Boots.2011.BRRip.XviD.AC3-INFERNO&amp;tr=udp%3A%2F%2Ftracker.openbittorrent.com%3A80&amp;tr=udp%3A%2F%2Fopen.demonii.com%3A1337&amp;tr=udp%3A%2F%2Ftracker.coppersurfer.tk%3A6969&amp;tr=udp%3A%2F%2Fexodus.desync.com%3A6969","seeders":0,"leechers":1,"uploader":"TvTeam","files":4,"time":1328999154,"description":". \n &lt;a href=&quot;\nhttp://www.torrenting.com&quot; rel=&quot;nofollow&quot; target=&quot;_NEW&quot;&gt;\nhttp://www.torrenting.com&lt;/a&gt;          :     Once &amp; For all ;)\n\n\n               www . Torrenting . Com \n\n(((((((((((((= Enjoy No RAR releases =))))))))))))))))))))\n\n\n...................................NFO:....................................\n\n.[center][img]http://lookpic.com/O/i2/1030/NUwsadAj.jpeg[/img][/center]\n[img]http://lookpic.com/O/i2/298/l4OrvnSi.png[/img]\n[pre][b]\nSource: 720p HDC thanx\n\nEnjoy :)\n\nPuss.In.Boots.2011.BRRip.XviD.AC3-INFERNO\nFormat                           : AVI\nFormat/Info                      : Audio Video Interleave\nFile size                        : 662 MiB\nDuration                         : 1h 21mn\nOverall bit rate                 : 1 136 Kbps\n\nVideo\nID                               : 0\nFormat                           : MPEG-4 Visual\nFormat profile                   : Advanced Simple@L5\nFormat settings, BVOP            : 2\nFormat settings, QPel            : No\nFormat settings, GMC             : No warppoints\nFormat settings, Matrix          : Default (H.263)\nMuxing mode                      : Packed bitstream\nCodec ID                         : XVID\nCodec ID/Hint                    : XviD\nDuration                         : 1h 21mn\nBit rate                         : 998 Kbps\nWidth                            : 672 pixels\nHeight                           : 288 pixels\nDisplay aspect ratio             : 2.35:1\nFrame rate                       : 23.976 fps\nColor space                      : YUV\nChroma subsampling               : 4:2:0\nBit depth                        : 8 bits\nScan type                        : Progressive\nCompression mode                 : Lossy\nBits/(Pixel*Frame)               : 0.215\nStream size                      : 582 MiB (88%)\nWriting library                  : XviD 64\n\nAudio\nID                               : 1\nFormat                           : AC-3\nFormat/Info                      : Audio Coding 3\nMode extension                   : CM (complete main)\nCodec ID                         : 2000\nDuration                         : 1h 21mn\nBit rate mode                    : Constant\nBit rate                         : 128 Kbps\nChannel(s)                       : 2 channels\nChannel positions                : Front: L R\nSampling rate                    : 48.0 KHz\nBit depth                        : 16 bits\nCompression mode                 : Lossy\nStream size                      : 74.6 MiB (11%)\nAlignment                        : Aligned on interleaves\nInterleave, duration             : 42 ms (1.00 video frame)\nInterleave, preload duration     : 992 ms[/b]","torrent":{"xt":"urn:btih:3d9c92d992f1b8de9204b25c37ee459af6f5e627","amp;dn":"Puss.In.Boots.2011.BRRip.XviD.AC3-INFERNO","amp;tr":["udp%3A%2F%2Ftracker.openbittorrent.com%3A80","udp%3A%2F%2Fopen.demonii.com%3A1337","udp%3A%2F%2Ftracker.coppersurfer.tk%3A6969","udp%3A%2F%2Fexodus.desync.com%3A6969"],"infoHash":"3d9c92d992f1b8de9204b25c37ee459af6f5e627","infoHashBuffer":{"type":"Buffer","data":[61,156,146,217,146,241,184,222,146,4,178,92,55,238,69,154,246,245,230,39]},"announce":[],"urlList":[]}}